<svg xmlns="http://www.w3.org/2000/svg" viewBox="0 0 48 48" width="48px" height="48px" clip-rule="evenodd" baseProfile="basic"><linearGradient id="otgSUr7MPT3L7k0tQcrTWa" x1="-275.991" x2="-275.991" y1="-7.111" y2="34.106" gradientTransform="translate(289.492 4.672)" gradientUnits="userSpaceOnUse"><stop offset="0" stop-color="#427fdb"/><stop offset="1" stop-color="#0c52bb"/></linearGradient><path fill="url(#otgSUr7MPT3L7k0tQcrTWa)" d="M9.001,40.995V7.002c0-1.105,0.899-2.004,2.004-2.004 h2.997l4,20.001l-4,18h-2.997C9.899,42.999,9.001,42.101,9.001,40.995z"/><linearGradient id="otgSUr7MPT3L7k0tQcrTWb" x1="-283.542" x2="-253.446" y1="-2.94" y2="27.156" gradientTransform="translate(288.523 6.005)" gradientUnits="userSpaceOnUse"><stop offset="0" stop-color="#55adfd"/><stop offset="1" stop-color="#438ffd"/></linearGradient><path fill="url(#otgSUr7MPT3L7k0tQcrTWb)" d="M14.002,42.999V4.998h22.996 c1.105,0,2.004,0.899,2.004,2.004v33.993c0,1.105-0.899,2.004-2.004,2.004H14.002z"/><path fill="#0c53bb" fill-rule="evenodd" d="M18.002,10.001v2.999 h10.999v-2.999H18.002z" clip-rule="evenodd"/><path fill="#0c53bb" fill-rule="evenodd" d="M21.001,14.999v2.999 h8.001v-2.999H21.001z" clip-rule="evenodd"/><path fill="#fff" fill-rule="evenodd" d="M34.002,4.999v16l-3.5-3 l-3.5,3v-16H34.002z" clip-rule="evenodd"/></svg>